<svg width="40" height="40" viewBox="0 0 40 40" fill="none" xmlns="http://www.w3.org/2000/svg">
<path d="M40 20C40 31.0457 31.0457 40 20 40C8.9543 40 0 31.0457 0 20C0 8.9543 8.9543 0 20 0C31.0457 0 40 8.9543 40 20Z" fill="#A7E1F8"/>
<path fill-rule="evenodd" clip-rule="evenodd" d="M20 38C29.9411 38 38 29.9411 38 20C38 10.0589 29.9411 2 20 2C10.0589 2 2 10.0589 2 20C2 29.9411 10.0589 38 20 38ZM20 40C31.0457 40 40 31.0457 40 20C40 8.9543 31.0457 0 20 0C8.9543 0 0 8.9543 0 20C0 31.0457 8.9543 40 20 40Z" fill="black"/>
<path fill-rule="evenodd" clip-rule="evenodd" d="M13.1213 11.7071C12.7308 11.3166 12.0976 11.3166 11.7071 11.7071C11.3166 12.0976 11.3166 12.7308 11.7071 13.1213L18.5 19.9142L11.7071 26.7071C11.3166 27.0976 11.3166 27.7308 11.7071 28.1213C12.0976 28.5118 12.7308 28.5118 13.1213 28.1213L19.9142 21.3284L26.2929 27.7071C26.6834 28.0976 27.3166 28.0976 27.7071 27.7071C28.0976 27.3166 28.0976 26.6834 27.7071 26.2929L21.3284 19.9142L27.7071 13.5355C28.0976 13.145 28.0976 12.5118 27.7071 12.1213C27.3166 11.7308 26.6834 11.7308 26.2929 12.1213L19.9142 18.5L13.1213 11.7071Z" fill="black"/>
</svg>
