<svg width="53" height="28" viewBox="0 0 53 28" fill="none" xmlns="http://www.w3.org/2000/svg">
<path d="M25.6675 28C23.2318 28 21.3665 27.6628 20.0716 26.9885C18.7766 26.3142 18.1291 25.2874 18.1291 23.908C18.1291 23.5709 18.0983 23.3563 18.0367 23.2644C18.0058 23.1418 17.8825 23.0498 17.6667 22.9885C16.1559 22.4674 15.4005 21.41 15.4005 19.8161C15.4005 19.387 15.4776 19.0038 15.6318 18.6667C15.7859 18.2989 15.863 17.9923 15.863 17.7471C15.863 17.4713 15.6472 17.2414 15.2155 17.0575C13.8898 16.4751 13.2269 15.4943 13.2269 14.1149C13.2269 13.0421 13.4735 12.1533 13.9668 11.4483C13.2885 11.387 12.5948 11.341 11.8857 11.3103C11.1766 11.2797 10.452 11.2644 9.71204 11.2644C8.75626 11.2644 7.78505 11.295 6.79843 11.3563C5.81181 11.387 5.05643 11.4023 4.53229 11.4023C1.51076 11.4023 0 10.3448 0 8.22989C0 7.12644 0.431647 6.28353 1.29494 5.70115C2.15823 5.11877 3.53025 4.72031 5.411 4.50575C6.36678 4.38314 7.46131 4.26054 8.69459 4.13793C9.92787 3.98468 11.0686 3.84675 12.1169 3.72414C12.7952 3.66284 13.4581 3.60153 14.1056 3.54023C14.7839 3.47893 15.4622 3.43295 16.1405 3.4023C16.5721 3.06514 17.0654 2.83525 17.6204 2.71264C18.0521 2.59004 18.6533 2.40613 19.4241 2.16092C20.1949 1.91571 21.089 1.59387 22.1065 1.1954C24.0797 0.398468 26.6542 0 29.8298 0C31.2173 0 32.4506 0.21456 33.5297 0.643679C34.6396 1.0728 35.9037 1.85441 37.322 2.98851C38.2161 3.66284 38.9098 4.15326 39.4031 4.45977C39.9273 4.76628 40.3898 4.96552 40.7906 5.05747C41.1914 5.11877 41.6539 5.14943 42.178 5.14943C42.4247 5.14943 42.733 5.14943 43.103 5.14943C43.5038 5.11877 43.8738 5.08812 44.2129 5.05747C44.5521 5.02682 44.7371 5.02682 44.7679 5.05747C45.2612 5.57854 45.6774 6.31418 46.0166 7.26437C46.3866 8.21456 46.6795 9.27203 46.8953 10.4368C47.1111 11.5709 47.219 12.7203 47.219 13.8851C47.219 18.4828 46.3866 21.6552 44.7216 23.4023H41.3455C39.9581 24.4444 38.3549 25.318 36.5358 26.023C34.7475 26.6973 32.913 27.1877 31.0323 27.4943C29.1515 27.8314 27.3633 28 25.6675 28ZM23.8176 26.4368H25.6675C27.6408 26.4368 29.5678 26.2529 31.4485 25.8851C33.3293 25.4866 35.0713 24.9349 36.6745 24.2299C38.3086 23.5249 39.6806 22.6973 40.7906 21.7471H43.9354C45.0145 20.1533 45.5541 17.5326 45.5541 13.8851C45.5541 12.5364 45.3999 11.2031 45.0916 9.88506C44.7833 8.56705 44.3979 7.50958 43.9354 6.71264C43.6579 6.7433 43.3496 6.77395 43.0105 6.8046C42.7021 6.8046 42.4247 6.8046 42.178 6.8046C41.4997 6.8046 40.8831 6.75862 40.3281 6.66667C39.7731 6.54406 39.1873 6.29885 38.5707 5.93103C37.9849 5.56322 37.2295 5.02682 36.3045 4.32184C35.0096 3.27969 33.8997 2.57471 32.9747 2.2069C32.0806 1.83908 31.0323 1.65517 29.8298 1.65517C26.87 1.65517 24.5113 2.00766 22.7539 2.71264C21.7056 3.14176 20.7653 3.49425 19.9328 3.77012C19.1004 4.01533 18.4683 4.19923 18.0367 4.32184C17.79 4.38314 17.5433 4.49042 17.2967 4.64368C17.05 4.79694 16.9267 4.90421 16.9267 4.96552H16.8805V5.42529C16.8805 6.28353 17.1271 6.91188 17.6204 7.31035C18.1446 7.70881 18.715 7.90805 19.3316 7.90805C19.7941 7.90805 20.4107 7.86207 21.1815 7.77012C21.9523 7.64751 22.7385 7.50958 23.5401 7.35632C24.3418 7.20307 25.0355 7.04981 25.6213 6.89655C26.2379 6.71264 26.6079 6.54406 26.7312 6.39081L27.9799 7.49425C27.6099 7.86207 26.9008 8.18391 25.8525 8.45977C25.9759 8.67433 26.0992 8.87356 26.2225 9.05747C26.3458 9.24138 26.4692 9.40996 26.5925 9.56322C26.9625 9.40996 27.317 9.28736 27.6562 9.1954C28.0262 9.10345 28.3807 9.05747 28.7199 9.05747C29.6757 9.05747 30.4002 9.34866 30.8935 9.93103C31.3869 10.4828 31.6335 11.1571 31.6335 11.954C31.6335 12.3831 31.5564 12.8276 31.4023 13.2874C32.3272 13.3793 33.0209 13.8238 33.4834 14.6207C33.9151 14.8353 34.3775 14.9885 34.8709 15.0805C35.395 15.1418 35.9808 15.1724 36.6283 15.1724C36.9366 15.1724 37.2912 15.1571 37.692 15.1264C38.1236 15.0958 38.4628 15.0498 38.7094 14.9885V16.5977C38.0928 16.751 37.3991 16.8276 36.6283 16.8276C36.1041 16.8276 35.6108 16.7969 35.1483 16.7356C34.6859 16.6743 34.2388 16.5824 33.8072 16.4598C33.7763 16.7663 33.7147 17.0421 33.6222 17.2874C33.5297 17.5019 33.4218 17.6858 33.2984 17.8391C33.0518 18.0536 32.6818 18.2989 32.1885 18.5747C31.726 18.8506 31.2019 19.1418 30.6161 19.4483C30.7702 19.6322 30.909 19.8621 31.0323 20.1379C31.1556 20.3831 31.2173 20.659 31.2173 20.9655C31.2173 21.3333 31.171 21.6398 31.0785 21.8851C30.7394 22.3755 30.1998 22.9119 29.4599 23.4943C28.7199 24.0766 27.8874 24.613 26.9625 25.1035C26.2533 25.4713 25.6367 25.7625 25.1126 25.977C24.6193 26.1609 24.1876 26.3142 23.8176 26.4368ZM45.6928 24.9195C45.3537 24.9195 45.107 24.8276 44.9529 24.6437C44.8295 24.4598 44.7679 24.2452 44.7679 24V23.6782C44.9529 23.9847 45.1841 24.1379 45.4616 24.1379C46.0782 24.1379 46.587 23.8314 46.9878 23.2184C47.4194 22.5747 47.7586 21.7625 48.0052 20.7816C48.2827 19.7701 48.4677 18.682 48.5602 17.5172C48.6835 16.3525 48.7452 15.249 48.7452 14.2069C48.7452 13.1648 48.6835 12.0766 48.5602 10.9425C48.4677 9.77778 48.2981 8.70498 48.0515 7.72414C47.8357 6.71264 47.5119 5.90038 47.0803 5.28736C46.6486 4.64368 46.1091 4.32184 45.4616 4.32184C45.1841 4.32184 44.9529 4.42912 44.7679 4.64368V4.55172C44.7679 3.81609 45.0762 3.44828 45.6928 3.44828H49.1614C49.9014 3.44828 50.518 3.81609 51.0113 4.55172C51.5047 5.25671 51.89 6.16092 52.1675 7.26437C52.4759 8.36782 52.6917 9.54789 52.815 10.8046C52.9383 12.0307 53 13.1648 53 14.2069C53 15.249 52.9383 16.3985 52.815 17.6552C52.6917 18.8812 52.4913 20.046 52.2138 21.1494C51.9363 22.2529 51.5355 23.1571 51.0113 23.8621C50.518 24.5671 49.9014 24.9195 49.1614 24.9195H45.6928ZM20.349 11.4023C21.5515 11.2184 22.5227 11.0038 23.2627 10.7586C24.0026 10.4828 24.573 10.2835 24.9738 10.1609H25.0201C24.8967 9.94636 24.758 9.7318 24.6038 9.51724C24.4805 9.30268 24.3572 9.08813 24.2339 8.87357C23.3397 9.08813 22.4302 9.25671 21.5052 9.37931C20.6111 9.50192 19.8557 9.56322 19.2391 9.56322C18.1908 9.56322 17.2659 9.19541 16.4642 8.45977C15.6626 7.72414 15.2618 6.69732 15.2618 5.37931V5.14943C14.7376 5.18008 14.2289 5.21073 13.7356 5.24138C13.2423 5.27203 12.7798 5.31801 12.3482 5.37931C11.2074 5.50192 10.0358 5.62452 8.83333 5.74713C7.63089 5.86973 6.56719 6.00766 5.64223 6.16092C4.13147 6.37548 3.08319 6.63602 2.49738 6.94253C1.94241 7.21839 1.66492 7.64751 1.66492 8.22989C1.66492 8.75096 1.86533 9.1341 2.26614 9.37931C2.66696 9.62452 3.42234 9.74713 4.53229 9.74713C5.05643 9.74713 5.79639 9.7318 6.75218 9.70115C7.7388 9.63985 8.72542 9.6092 9.71204 9.6092C10.6062 9.6092 11.5774 9.63985 12.6257 9.70115C13.7048 9.76245 14.7068 9.82376 15.6318 9.88506C15.8476 9.82376 16.0788 9.7931 16.3255 9.7931C16.603 9.76245 16.9421 9.74713 17.3429 9.74713C18.0212 9.74713 18.6533 9.88506 19.2391 10.1609C19.8249 10.4368 20.1949 10.8506 20.349 11.4023ZM18.7304 16.6897C19.347 16.6897 20.1641 16.613 21.1815 16.4598C22.2298 16.2759 23.201 16.0307 24.0951 15.7241C25.6059 15.2031 26.8083 14.682 27.7024 14.1609C28.6274 13.6398 29.3057 13.2107 29.7373 12.8736C29.7682 12.8123 29.8144 12.659 29.8761 12.4138C29.9686 12.1686 30.0148 11.954 30.0148 11.7701C30.0148 11.341 29.8761 11.0498 29.5986 10.8966C29.3211 10.7126 29.059 10.6054 28.8124 10.5747C28.3191 10.5134 27.7641 10.636 27.1475 10.9425C26.5617 11.249 25.9759 11.4943 25.3901 11.6782C24.5268 11.9847 23.6172 12.2912 22.6614 12.5977C21.7365 12.8736 20.5186 13.0881 19.0079 13.2414C19.0079 12.6284 18.8537 12.1686 18.5454 11.8621C18.2371 11.5249 17.6358 11.3563 16.7417 11.3563C16.6184 11.3563 16.4796 11.3563 16.3255 11.3563C16.2022 11.3563 16.0634 11.3716 15.9093 11.4023C15.4776 11.7395 15.2001 12.1686 15.0768 12.6897C14.9535 13.1801 14.8918 13.7012 14.8918 14.2529C14.8918 14.5594 14.9689 14.7893 15.123 14.9425C15.2772 15.0958 15.6009 15.341 16.0942 15.6782C17.2042 16.3525 18.0829 16.6897 18.7304 16.6897ZM19.4703 21.7931C20.3645 21.7931 21.3357 21.6398 22.3839 21.3333C23.4322 20.9962 24.6347 20.5671 25.9913 20.046C26.6696 19.7701 27.4095 19.4483 28.2112 19.0805C29.0436 18.682 29.799 18.2989 30.4773 17.931C31.1864 17.5632 31.6798 17.272 31.9572 17.0575C32.1731 16.7203 32.281 16.3678 32.281 16C32.281 15.6015 32.1576 15.249 31.911 14.9425C31.6952 14.636 31.3714 14.4828 30.9398 14.4828C30.6623 14.4828 30.3232 14.5594 29.9223 14.7126C29.1824 15.1724 28.3345 15.6322 27.3787 16.092C26.4229 16.5517 25.4055 16.9502 24.3264 17.2874C23.6789 17.5019 22.9697 17.6858 22.199 17.8391C21.4282 17.9923 20.7036 18.1149 20.0253 18.2069C19.3778 18.2989 18.8691 18.3448 18.4991 18.3448C18.0675 18.3448 17.6513 18.2682 17.2504 18.1149C17.1579 18.3295 17.0654 18.6054 16.9729 18.9425C16.9113 19.2797 16.8805 19.6322 16.8805 20C16.8805 20.6437 17.1271 21.1035 17.6204 21.3793C18.1446 21.6552 18.7612 21.7931 19.4703 21.7931ZM21.2277 25.3333C22.1835 25.3333 22.9543 25.2567 23.5401 25.1035C24.1259 24.9502 24.6501 24.751 25.1126 24.5057C25.6059 24.2605 26.13 23.9847 26.685 23.6782C27.3016 23.341 27.8874 22.9579 28.4424 22.5287C28.9974 22.069 29.3982 21.6705 29.6449 21.3333C29.5832 20.8736 29.3982 20.4904 29.0899 20.1839C28.6274 20.3985 28.1649 20.613 27.7024 20.8276C27.24 21.0421 26.8237 21.2261 26.4538 21.3793C25.5905 21.7165 24.5884 22.1149 23.4476 22.5747C22.3377 23.0038 21.1507 23.2184 19.8866 23.2184H19.5628C19.532 23.2797 19.5166 23.3717 19.5166 23.4943C19.5166 23.8314 19.6091 24.2299 19.7941 24.6897C20.0099 25.1188 20.4878 25.3333 21.2277 25.3333Z" fill="black"/>
</svg>
