<svg width="46" height="46" viewBox="0 0 46 46" fill="none" xmlns="http://www.w3.org/2000/svg">
<circle cx="23" cy="23" r="22.5" fill="#FDF9F7" stroke="black"/>
<path d="M7.78853 7.79003C-0.596178 16.1766 -0.596178 29.8254 7.78853 38.2119C11.982 42.4035 17.4876 44.4993 23.0002 44.4993C28.5128 44.4993 34.0165 42.4034 38.2101 38.2118L7.78853 7.79003ZM7.78853 7.79003C16.177 -0.596388 29.8217 -0.596348 38.2101 7.79014M7.78853 7.79003L38.2101 7.79014M38.2101 7.79014C46.5966 16.1766 46.5966 29.8251 38.2103 38.2116L38.2101 7.79014ZM28.718 12.4494L23.0001 18.1673L17.2822 12.4494C15.9478 11.115 13.7842 11.1127 12.4494 12.4494C11.1127 13.7842 11.1151 15.9478 12.4494 17.2821L18.1675 23.0001L12.4527 28.7166C12.4523 28.7169 12.452 28.7172 12.4517 28.7175C11.1146 30.0523 11.1169 32.2162 12.4513 33.5506C13.1172 34.2165 13.9943 34.5518 14.8677 34.5518C15.7407 34.5518 16.6158 34.2156 17.2815 33.5533L17.2843 33.5505L23.0002 27.833L28.7179 33.5524L28.7181 33.5526C29.3839 34.2185 30.2611 34.5538 31.1345 34.5538C32.008 34.5538 32.8851 34.2184 33.5509 33.5526C34.8864 32.2171 34.8864 30.0556 33.551 28.72C33.551 28.72 33.5509 28.7199 33.5509 28.7199L27.8327 23.0001L33.5507 17.2821C34.885 15.9478 34.8874 13.7842 33.5507 12.4494C32.2152 11.1138 30.0535 11.1138 28.718 12.4494Z" fill="#50B36F" stroke="black" stroke-width="3"/>
</svg>
