<svg width="476" height="125" viewBox="0 0 476 125" fill="none" xmlns="http://www.w3.org/2000/svg">
<path d="M137.297 1.009C131.021 1.009 127.279 4.50171 127.279 8.84818C127.279 12.923 129.891 15.0574 136.946 16.3769C141.78 17.2695 143.339 18.3173 143.339 20.1413C143.339 22.5085 141.078 23.7892 137.414 23.7892C133.555 23.7892 130.982 22.3921 129.306 19.2875L126.383 22.1981C128.371 25.3803 131.84 27.3983 137.453 27.3983C143.534 27.3983 147.705 24.4877 147.705 19.9084C147.705 15.7948 145.171 13.6604 138.272 12.4573C133.282 11.5647 131.684 10.4781 131.684 8.4213C131.684 6.24806 133.672 4.61813 137.336 4.61813C141 4.61813 142.988 5.9764 144.43 9.04222L147.588 6.20925C145.327 2.71655 142.053 1.009 137.297 1.009Z" fill="black"/>
<path d="M176.573 1.39708H172.363V16.6874C172.363 21.5383 170.375 23.7892 166.048 23.7892C161.722 23.7892 159.734 21.5383 159.734 16.6874V1.39708H155.524V17.1919C155.524 23.9832 159.227 27.3983 166.048 27.3983C172.87 27.3983 176.573 23.9832 176.573 17.1919V1.39708Z" fill="black"/>
<path d="M196.093 1.39708H186.192V27.0102H190.363V17.3471H196.093C201.628 17.3471 205.136 14.3589 205.136 9.39149C205.136 4.38529 201.628 1.39708 196.093 1.39708ZM195.43 13.8156H190.363V4.9286H195.43C199.133 4.9286 200.809 6.48091 200.809 9.39149C200.809 12.3021 199.133 13.8156 195.43 13.8156Z" fill="black"/>
<path d="M217.14 23.4399V15.8336H228.444V12.3409H217.14V4.9674H231.601V1.39708H212.969V27.0102H232.147V23.4399H217.14Z" fill="black"/>
<path d="M256.304 27.0102H261.099L254.121 16.2993C257.552 15.3291 259.578 12.7678 259.578 9.08103C259.578 4.26886 256.109 1.39708 250.574 1.39708H240.089V27.0102H244.221V16.765H249.756L256.304 27.0102ZM244.221 4.9286H250.223C253.615 4.9286 255.252 6.28687 255.252 9.11984C255.252 11.9528 253.615 13.3111 250.223 13.3111H244.221V4.9286Z" fill="black"/>
<path d="M285.495 1.39708V12.2633H272.788V1.39708H268.617V27.0102H272.788V15.8336H285.495V27.0102H289.705V1.39708H285.495Z" fill="black"/>
<path d="M303.828 1.39708H299.657V27.0102H303.828V1.39708Z" fill="black"/>
<path d="M315.317 0C313.641 0 312.354 1.20304 312.354 2.87178C312.354 4.73456 313.718 5.58833 314.849 5.58833C315.434 5.58833 315.745 5.4719 315.94 5.27787L316.135 5.35548C315.667 7.06303 314.186 8.61534 312.003 9.35269L314.03 11.0602C317.188 9.62434 318.63 6.90779 318.63 4.11363C318.63 1.74635 317.461 0 315.317 0Z" fill="black"/>
<path d="M335.259 1.009C328.984 1.009 325.242 4.50171 325.242 8.84818C325.242 12.923 327.853 15.0574 334.909 16.3769C339.742 17.2695 341.301 18.3173 341.301 20.1413C341.301 22.5085 339.04 23.7892 335.376 23.7892C331.517 23.7892 328.945 22.3921 327.269 19.2875L324.345 22.1981C326.333 25.3803 329.802 27.3983 335.415 27.3983C341.496 27.3983 345.667 24.4877 345.667 19.9084C345.667 15.7948 343.133 13.6604 336.234 12.4573C331.245 11.5647 329.646 10.4781 329.646 8.4213C329.646 6.24806 331.634 4.61813 335.298 4.61813C338.963 4.61813 340.95 5.9764 342.393 9.04222L345.55 6.20925C343.289 2.71655 340.015 1.009 335.259 1.009Z" fill="black"/>
<path d="M0 124.03H29.1371C44.4366 124.03 52.6223 117.529 52.6223 106.469C52.6223 98.9987 47.6524 92.9835 38.6871 91.7223V91.6253C46.7753 90.267 50.9656 84.3488 50.9656 77.4604C50.9656 66.4002 43.7544 59.9969 28.1626 59.9969H0V124.03ZM13.0581 86.8713V70.378H26.3111C33.5223 70.378 37.0305 73.0945 37.0305 78.6246C37.0305 84.1548 33.5223 86.8713 26.3111 86.8713H13.0581ZM13.0581 113.94V97.1554H27.9678C35.179 97.1554 38.6871 100.163 38.6871 105.499C38.6871 110.932 35.179 113.94 27.9678 113.94H13.0581Z" fill="black"/>
<path d="M86.5222 74.5498C70.833 74.5498 61.5753 83.9607 61.5753 99.7749C61.5753 115.589 70.833 125 86.5222 125C102.211 125 111.469 115.589 111.469 99.7749C111.469 83.9607 102.211 74.5498 86.5222 74.5498ZM86.5222 84.4458C94.0257 84.4458 98.1186 89.4908 98.1186 99.7749C98.1186 110.059 94.0257 115.104 86.5222 115.104C79.0187 115.104 74.9258 110.059 74.9258 99.7749C74.9258 89.4908 79.0187 84.4458 86.5222 84.4458Z" fill="black"/>
<path d="M145.334 74.5498C129.645 74.5498 120.387 83.9607 120.387 99.7749C120.387 115.589 129.645 125 145.334 125C161.023 125 170.281 115.589 170.281 99.7749C170.281 83.9607 161.023 74.5498 145.334 74.5498ZM145.334 84.4458C152.837 84.4458 156.93 89.4908 156.93 99.7749C156.93 110.059 152.837 115.104 145.334 115.104C137.83 115.104 133.738 110.059 133.738 99.7749C133.738 89.4908 137.83 84.4458 145.334 84.4458Z" fill="black"/>
<path d="M217.399 124.03H232.503L213.014 94.5359L231.334 75.52H216.229L195.083 97.7375V54.2727H181.733V124.03H195.083V111.999L203.951 102.588L217.399 124.03Z" fill="black"/>
<path d="M324.945 106.372L312.569 102.685C310.523 110.35 305.456 114.037 297.757 114.037C286.94 114.037 280.606 106.178 280.606 92.0133C280.606 77.7515 287.33 69.9899 298.05 69.9899C305.456 69.9899 309.743 72.9975 311.887 80.7591L324.068 75.617C320.463 64.4598 310.621 59.0267 297.465 59.0267C278.657 59.0267 266.671 71.4452 266.671 92.0133C266.671 112.581 278.56 125 297.66 125C310.718 125 321.048 118.888 324.945 106.372Z" fill="black"/>
<path d="M348.198 54.2727H334.848V110.544C334.848 120.634 339.038 125 348.491 125C351.707 125 355.41 124.224 357.553 122.963L358.723 113.746C356.579 114.522 355.215 114.813 352.973 114.813C349.368 114.813 348.198 113.164 348.198 108.604V54.2727Z" fill="black"/>
<path d="M399.099 75.52V101.521C399.099 110.544 394.032 114.522 387.698 114.522C382.436 114.522 379.22 112.096 379.22 104.238V75.52H365.869V107.633C365.869 120.052 373.178 125 383.02 125C390.816 125 396.858 122.089 400.074 115.686L400.561 124.03H412.45V75.52H399.099Z" fill="black"/>
<path d="M455.146 74.5498C447.935 74.5498 442.673 78.1395 439.847 83.5726V54.2727H426.496V124.03H438.287L438.775 114.619C441.503 120.828 447.35 125 455.146 125C468.107 125 476 115.686 476 99.8719C476 83.9607 468.009 74.5498 455.146 74.5498ZM451.151 114.813C444.232 114.813 439.847 109.671 439.847 100.26V99.2898C439.847 90.073 444.134 84.7369 451.151 84.7369C458.264 84.7369 462.552 89.8789 462.552 99.7749C462.552 109.671 458.264 114.813 451.151 114.813Z" fill="black"/>
<path d="M155 108.5C155 112.09 152.09 115 148.5 115C144.91 115 142 112.09 142 108.5C142 104.91 144.91 102 148.5 102C152.09 102 155 104.91 155 108.5Z" fill="black"/>
<path d="M98 107.5C98 111.09 95.0899 114 91.5 114C87.9101 114 85 111.09 85 107.5C85 103.91 87.9101 101 91.5 101C95.0899 101 98 103.91 98 107.5Z" fill="black"/>
</svg>
