<svg width="36" height="35" viewBox="0 0 36 35" fill="none" xmlns="http://www.w3.org/2000/svg">
<path d="M17.093 0.952823C17.4514 0.18109 18.5485 0.18109 18.9069 0.952823L23.4319 10.6963C23.5776 11.0101 23.8751 11.2263 24.2185 11.2679L34.8834 12.5604C35.7282 12.6628 36.0672 13.7063 35.444 14.2856L27.5756 21.6C27.3223 21.8355 27.2086 22.1853 27.2752 22.5247L29.3415 33.0671C29.5052 33.9021 28.6176 34.547 27.874 34.1333L18.4861 28.9103C18.1838 28.7422 17.8161 28.7422 17.5138 28.9103L8.12594 34.1333C7.38237 34.547 6.49477 33.9021 6.65843 33.0671L8.72477 22.5247C8.79131 22.1853 8.67767 21.8355 8.4243 21.6L0.555946 14.2856C-0.0672645 13.7063 0.27177 12.6628 1.11648 12.5604L11.7814 11.2679C12.1248 11.2263 12.4223 11.0101 12.5681 10.6963L17.093 0.952823Z" fill="#FFE68D"/>
<path fill-rule="evenodd" clip-rule="evenodd" d="M18 3.74819L14.382 11.5387C13.9449 12.48 13.0523 13.1285 12.022 13.2533L3.49476 14.2868L9.786 20.1351C10.5461 20.8417 10.887 21.891 10.6874 22.9094L9.03526 31.3387L16.5414 27.1626C17.4483 26.6581 18.5516 26.6581 19.4585 27.1626L26.9647 31.3387L25.3125 22.9094C25.1129 21.891 25.4538 20.8417 26.2139 20.1351L32.5052 14.2868L23.9779 13.2533C22.9476 13.1285 22.0551 12.48 21.6179 11.5387L18 3.74819ZM18.9069 0.952823C18.5485 0.181091 17.4514 0.18109 17.093 0.952823L12.5681 10.6963C12.4223 11.0101 12.1248 11.2263 11.7814 11.2679L1.11648 12.5604C0.271771 12.6628 -0.0672646 13.7063 0.555946 14.2856L8.4243 21.6C8.67767 21.8355 8.79131 22.1853 8.72477 22.5247L6.65843 33.0671C6.49477 33.9021 7.38237 34.547 8.12594 34.1333L17.5138 28.9103C17.8161 28.7422 18.1838 28.7422 18.4861 28.9103L27.874 34.1333C28.6176 34.547 29.5052 33.9021 29.3415 33.0671L27.2752 22.5247C27.2086 22.1853 27.3223 21.8355 27.5756 21.6L35.444 14.2856C36.0672 13.7063 35.7282 12.6628 34.8834 12.5604L24.2185 11.2679C23.8751 11.2263 23.5776 11.0101 23.4319 10.6963L18.9069 0.952823Z" fill="black"/>
</svg>
